<svg xmlns="http://www.w3.org/2000/svg" width="81" height="109" viewBox="0 0 81 109">
  <title>Magic Sword Soul front upright idle</title>
  <desc>Magic Sword Soul front upright idle; 31 frames; 180ms per frame; original 436 canvas 81x109.</desc>
  <style><![CDATA[.frame{opacity:0;animation-duration:5580ms;animation-iteration-count:infinite;animation-timing-function:step-end;}.f0{animation-name:show0}@keyframes show0{0%{opacity:0}0.000000%{opacity:1}3.225806%{opacity:1}3.226806%{opacity:0}100%{opacity:0}}.f1{animation-name:show1}@keyframes show1{0%{opacity:0}3.225806%{opacity:1}6.451613%{opacity:1}6.452613%{opacity:0}100%{opacity:0}}.f2{animation-name:show2}@keyframes show2{0%{opacity:0}6.451613%{opacity:1}9.677419%{opacity:1}9.678419%{opacity:0}100%{opacity:0}}.f3{animation-name:show3}@keyframes show3{0%{opacity:0}9.677419%{opacity:1}12.903226%{opacity:1}12.904226%{opacity:0}100%{opacity:0}}.f4{animation-name:show4}@keyframes show4{0%{opacity:0}12.903226%{opacity:1}16.129032%{opacity:1}16.130032%{opacity:0}100%{opacity:0}}.f5{animation-name:show5}@keyframes show5{0%{opacity:0}16.129032%{opacity:1}19.354839%{opacity:1}19.355839%{opacity:0}100%{opacity:0}}.f6{animation-name:show6}@keyframes show6{0%{opacity:0}19.354839%{opacity:1}22.580645%{opacity:1}22.581645%{opacity:0}100%{opacity:0}}.f7{animation-name:show7}@keyframes show7{0%{opacity:0}22.580645%{opacity:1}25.806452%{opacity:1}25.807452%{opacity:0}100%{opacity:0}}.f8{animation-name:show8}@keyframes show8{0%{opacity:0}25.806452%{opacity:1}29.032258%{opacity:1}29.033258%{opacity:0}100%{opacity:0}}.f9{animation-name:show9}@keyframes show9{0%{opacity:0}29.032258%{opacity:1}32.258065%{opacity:1}32.259065%{opacity:0}100%{opacity:0}}.f10{animation-name:show10}@keyframes show10{0%{opacity:0}32.258065%{opacity:1}35.483871%{opacity:1}35.484871%{opacity:0}100%{opacity:0}}.f11{animation-name:show11}@keyframes show11{0%{opacity:0}35.483871%{opacity:1}38.709677%{opacity:1}38.710677%{opacity:0}100%{opacity:0}}.f12{animation-name:show12}@keyframes show12{0%{opacity:0}38.709677%{opacity:1}41.935484%{opacity:1}41.936484%{opacity:0}100%{opacity:0}}.f13{animation-name:show13}@keyframes show13{0%{opacity:0}41.935484%{opacity:1}45.161290%{opacity:1}45.162290%{opacity:0}100%{opacity:0}}.f14{animation-name:show14}@keyframes show14{0%{opacity:0}45.161290%{opacity:1}48.387097%{opacity:1}48.388097%{opacity:0}100%{opacity:0}}.f15{animation-name:show15}@keyframes show15{0%{opacity:0}48.387097%{opacity:1}51.612903%{opacity:1}51.613903%{opacity:0}100%{opacity:0}}.f16{animation-name:show16}@keyframes show16{0%{opacity:0}51.612903%{opacity:1}54.838710%{opacity:1}54.839710%{opacity:0}100%{opacity:0}}.f17{animation-name:show17}@keyframes show17{0%{opacity:0}54.838710%{opacity:1}58.064516%{opacity:1}58.065516%{opacity:0}100%{opacity:0}}.f18{animation-name:show18}@keyframes show18{0%{opacity:0}58.064516%{opacity:1}61.290323%{opacity:1}61.291323%{opacity:0}100%{opacity:0}}.f19{animation-name:show19}@keyframes show19{0%{opacity:0}61.290323%{opacity:1}64.516129%{opacity:1}64.517129%{opacity:0}100%{opacity:0}}.f20{animation-name:show20}@keyframes show20{0%{opacity:0}64.516129%{opacity:1}67.741935%{opacity:1}67.742935%{opacity:0}100%{opacity:0}}.f21{animation-name:show21}@keyframes show21{0%{opacity:0}67.741935%{opacity:1}70.967742%{opacity:1}70.968742%{opacity:0}100%{opacity:0}}.f22{animation-name:show22}@keyframes show22{0%{opacity:0}70.967742%{opacity:1}74.193548%{opacity:1}74.194548%{opacity:0}100%{opacity:0}}.f23{animation-name:show23}@keyframes show23{0%{opacity:0}74.193548%{opacity:1}77.419355%{opacity:1}77.420355%{opacity:0}100%{opacity:0}}.f24{animation-name:show24}@keyframes show24{0%{opacity:0}77.419355%{opacity:1}80.645161%{opacity:1}80.646161%{opacity:0}100%{opacity:0}}.f25{animation-name:show25}@keyframes show25{0%{opacity:0}80.645161%{opacity:1}83.870968%{opacity:1}83.871968%{opacity:0}100%{opacity:0}}.f26{animation-name:show26}@keyframes show26{0%{opacity:0}83.870968%{opacity:1}87.096774%{opacity:1}87.097774%{opacity:0}100%{opacity:0}}.f27{animation-name:show27}@keyframes show27{0%{opacity:0}87.096774%{opacity:1}90.322581%{opacity:1}90.323581%{opacity:0}100%{opacity:0}}.f28{animation-name:show28}@keyframes show28{0%{opacity:0}90.322581%{opacity:1}93.548387%{opacity:1}93.549387%{opacity:0}100%{opacity:0}}.f29{animation-name:show29}@keyframes show29{0%{opacity:0}93.548387%{opacity:1}96.774194%{opacity:1}96.775194%{opacity:0}100%{opacity:0}}.f30{animation-name:show30}@keyframes show30{0%{opacity:0}96.774194%{opacity:1}100.000000%{opacity:1}100.001000%{opacity:0}100%{opacity:0}}]]></style>
  <g class="frame f0" transform="translate(0 0.00)"><ellipse cx="40.5" cy="99.2" rx="29.2" ry="4.9" fill="none" stroke="#b05cff" stroke-width="0.97" opacity="0.32"/><path d="M14.6 93.7Q40.5 78.5 66.4 93.7" fill="none" stroke="#eea8ff" stroke-width="0.57" opacity="0.48"/><circle cx="16.2" cy="85.0" r="1.46" fill="#f2c4ff" opacity=".8"/><circle cx="63.2" cy="70.9" r="1.05" fill="#8a4dff" opacity=".72"/><image href="magic-sword-soul_1_1.png" x="0" y="0" width="81" height="109" preserveAspectRatio="xMidYMid meet"/></g>
  <g class="frame f1" transform="translate(0 -0.56)"><ellipse cx="40.5" cy="99.2" rx="29.2" ry="4.9" fill="none" stroke="#b05cff" stroke-width="0.97" opacity="0.37"/><path d="M14.6 93.7Q40.5 78.5 66.4 93.7" fill="none" stroke="#eea8ff" stroke-width="0.57" opacity="0.48"/><circle cx="23.2" cy="83.0" r="1.46" fill="#f2c4ff" opacity=".8"/><circle cx="58.2" cy="73.9" r="1.05" fill="#8a4dff" opacity=".72"/><image href="magic-sword-soul_1_1.png" x="0" y="0" width="81" height="109" preserveAspectRatio="xMidYMid meet"/></g>
  <g class="frame f2" transform="translate(0 -1.10)"><ellipse cx="40.5" cy="99.2" rx="29.2" ry="4.9" fill="none" stroke="#b05cff" stroke-width="0.97" opacity="0.41"/><path d="M14.6 93.7Q40.5 78.5 66.4 93.7" fill="none" stroke="#eea8ff" stroke-width="0.57" opacity="0.46"/><circle cx="30.2" cy="81.0" r="1.46" fill="#f2c4ff" opacity=".8"/><circle cx="53.2" cy="76.9" r="1.05" fill="#8a4dff" opacity=".72"/><image href="magic-sword-soul_1_1.png" x="0" y="0" width="81" height="109" preserveAspectRatio="xMidYMid meet"/></g>
  <g class="frame f3" transform="translate(0 -1.59)"><ellipse cx="40.5" cy="99.2" rx="29.2" ry="4.9" fill="none" stroke="#b05cff" stroke-width="0.97" opacity="0.45"/><path d="M14.6 93.7Q40.5 78.5 66.4 93.7" fill="none" stroke="#eea8ff" stroke-width="0.57" opacity="0.44"/><circle cx="37.2" cy="79.0" r="1.46" fill="#f2c4ff" opacity=".8"/><circle cx="48.2" cy="79.9" r="1.05" fill="#8a4dff" opacity=".72"/><image href="magic-sword-soul_1_1.png" x="0" y="0" width="81" height="109" preserveAspectRatio="xMidYMid meet"/></g>
  <g class="frame f4" transform="translate(0 -2.01)"><ellipse cx="40.5" cy="99.2" rx="29.2" ry="4.9" fill="none" stroke="#b05cff" stroke-width="0.97" opacity="0.48"/><path d="M14.6 93.7Q40.5 78.5 66.4 93.7" fill="none" stroke="#eea8ff" stroke-width="0.57" opacity="0.41"/><circle cx="44.2" cy="77.0" r="1.46" fill="#f2c4ff" opacity=".8"/><circle cx="43.2" cy="82.9" r="1.05" fill="#8a4dff" opacity=".72"/><image href="magic-sword-soul_1_1.png" x="0" y="0" width="81" height="109" preserveAspectRatio="xMidYMid meet"/></g>
  <g class="frame f5" transform="translate(0 -2.34)"><ellipse cx="40.5" cy="99.2" rx="29.2" ry="4.9" fill="none" stroke="#b05cff" stroke-width="0.97" opacity="0.51"/><path d="M14.6 93.7Q40.5 78.5 66.4 93.7" fill="none" stroke="#eea8ff" stroke-width="0.57" opacity="0.38"/><circle cx="51.2" cy="75.0" r="1.46" fill="#f2c4ff" opacity=".8"/><circle cx="38.2" cy="70.9" r="1.05" fill="#8a4dff" opacity=".72"/><image href="magic-sword-soul_1_1_f1.png" x="0" y="0" width="81" height="109" preserveAspectRatio="xMidYMid meet"/></g>
  <g class="frame f6" transform="translate(0 -2.57)"><ellipse cx="40.5" cy="99.2" rx="29.2" ry="4.9" fill="none" stroke="#b05cff" stroke-width="0.97" opacity="0.53"/><path d="M14.6 93.7Q40.5 78.5 66.4 93.7" fill="none" stroke="#eea8ff" stroke-width="0.57" opacity="0.34"/><circle cx="58.2" cy="85.0" r="1.46" fill="#f2c4ff" opacity=".8"/><circle cx="33.2" cy="73.9" r="1.05" fill="#8a4dff" opacity=".72"/><image href="magic-sword-soul_1_1_f1.png" x="0" y="0" width="81" height="109" preserveAspectRatio="xMidYMid meet"/></g>
  <g class="frame f7" transform="translate(0 -2.69)"><ellipse cx="40.5" cy="99.2" rx="29.2" ry="4.9" fill="none" stroke="#b05cff" stroke-width="0.97" opacity="0.54"/><path d="M14.6 93.7Q40.5 78.5 66.4 93.7" fill="none" stroke="#eea8ff" stroke-width="0.57" opacity="0.30"/><circle cx="18.2" cy="83.0" r="1.46" fill="#f2c4ff" opacity=".8"/><circle cx="28.2" cy="76.9" r="1.05" fill="#8a4dff" opacity=".72"/><image href="magic-sword-soul_1_1_f1.png" x="0" y="0" width="81" height="109" preserveAspectRatio="xMidYMid meet"/></g>
  <g class="frame f8" transform="translate(0 -2.69)"><ellipse cx="40.5" cy="99.2" rx="29.2" ry="4.9" fill="none" stroke="#b05cff" stroke-width="0.97" opacity="0.54"/><path d="M14.6 93.7Q40.5 78.5 66.4 93.7" fill="none" stroke="#eea8ff" stroke-width="0.57" opacity="0.26"/><circle cx="25.2" cy="81.0" r="1.46" fill="#f2c4ff" opacity=".8"/><circle cx="23.2" cy="79.9" r="1.05" fill="#8a4dff" opacity=".72"/><image href="magic-sword-soul_1_1.png" x="0" y="0" width="81" height="109" preserveAspectRatio="xMidYMid meet"/></g>
  <g class="frame f9" transform="translate(0 -2.57)"><ellipse cx="40.5" cy="99.2" rx="29.2" ry="4.9" fill="none" stroke="#b05cff" stroke-width="0.97" opacity="0.53"/><path d="M14.6 93.7Q40.5 78.5 66.4 93.7" fill="none" stroke="#eea8ff" stroke-width="0.57" opacity="0.22"/><circle cx="32.2" cy="79.0" r="1.46" fill="#f2c4ff" opacity=".8"/><circle cx="58.7" cy="82.9" r="1.05" fill="#8a4dff" opacity=".72"/><image href="magic-sword-soul_1_1.png" x="0" y="0" width="81" height="109" preserveAspectRatio="xMidYMid meet"/></g>
  <g class="frame f10" transform="translate(0 -2.34)"><ellipse cx="40.5" cy="99.2" rx="29.2" ry="4.9" fill="none" stroke="#b05cff" stroke-width="0.97" opacity="0.51"/><path d="M14.6 93.7Q40.5 78.5 66.4 93.7" fill="none" stroke="#eea8ff" stroke-width="0.57" opacity="0.18"/><circle cx="39.2" cy="77.0" r="1.46" fill="#f2c4ff" opacity=".8"/><circle cx="53.7" cy="70.9" r="1.05" fill="#8a4dff" opacity=".72"/><image href="magic-sword-soul_1_1.png" x="0" y="0" width="81" height="109" preserveAspectRatio="xMidYMid meet"/></g>
  <g class="frame f11" transform="translate(0 -2.01)"><ellipse cx="40.5" cy="99.2" rx="29.2" ry="4.9" fill="none" stroke="#b05cff" stroke-width="0.97" opacity="0.48"/><path d="M14.6 93.7Q40.5 78.5 66.4 93.7" fill="none" stroke="#eea8ff" stroke-width="0.57" opacity="0.15"/><circle cx="46.2" cy="75.0" r="1.46" fill="#f2c4ff" opacity=".8"/><circle cx="48.7" cy="73.9" r="1.05" fill="#8a4dff" opacity=".72"/><image href="magic-sword-soul_1_1.png" x="0" y="0" width="81" height="109" preserveAspectRatio="xMidYMid meet"/></g>
  <g class="frame f12" transform="translate(0 -1.59)"><ellipse cx="40.5" cy="99.2" rx="29.2" ry="4.9" fill="none" stroke="#b05cff" stroke-width="0.97" opacity="0.45"/><path d="M14.6 93.7Q40.5 78.5 66.4 93.7" fill="none" stroke="#eea8ff" stroke-width="0.57" opacity="0.12"/><circle cx="53.2" cy="85.0" r="1.46" fill="#f2c4ff" opacity=".8"/><circle cx="43.7" cy="76.9" r="1.05" fill="#8a4dff" opacity=".72"/><image href="magic-sword-soul_1_1.png" x="0" y="0" width="81" height="109" preserveAspectRatio="xMidYMid meet"/></g>
  <g class="frame f13" transform="translate(0 -1.10)"><ellipse cx="40.5" cy="99.2" rx="29.2" ry="4.9" fill="none" stroke="#b05cff" stroke-width="0.97" opacity="0.41"/><path d="M14.6 93.7Q40.5 78.5 66.4 93.7" fill="none" stroke="#eea8ff" stroke-width="0.57" opacity="0.10"/><circle cx="60.2" cy="83.0" r="1.46" fill="#f2c4ff" opacity=".8"/><circle cx="38.7" cy="79.9" r="1.05" fill="#8a4dff" opacity=".72"/><image href="magic-sword-soul_1_1_f1.png" x="0" y="0" width="81" height="109" preserveAspectRatio="xMidYMid meet"/></g>
  <g class="frame f14" transform="translate(0 -0.56)"><ellipse cx="40.5" cy="99.2" rx="29.2" ry="4.9" fill="none" stroke="#b05cff" stroke-width="0.97" opacity="0.37"/><path d="M14.6 93.7Q40.5 78.5 66.4 93.7" fill="none" stroke="#eea8ff" stroke-width="0.57" opacity="0.08"/><circle cx="20.2" cy="81.0" r="1.46" fill="#f2c4ff" opacity=".8"/><circle cx="33.7" cy="82.9" r="1.05" fill="#8a4dff" opacity=".72"/><image href="magic-sword-soul_1_1_f1.png" x="0" y="0" width="81" height="109" preserveAspectRatio="xMidYMid meet"/></g>
  <g class="frame f15" transform="translate(0 -0.00)"><ellipse cx="40.5" cy="99.2" rx="29.2" ry="4.9" fill="none" stroke="#b05cff" stroke-width="0.97" opacity="0.32"/><path d="M14.6 93.7Q40.5 78.5 66.4 93.7" fill="none" stroke="#eea8ff" stroke-width="0.57" opacity="0.08"/><circle cx="27.2" cy="79.0" r="1.46" fill="#f2c4ff" opacity=".8"/><circle cx="28.7" cy="70.9" r="1.05" fill="#8a4dff" opacity=".72"/><image href="magic-sword-soul_1_1_f1.png" x="0" y="0" width="81" height="109" preserveAspectRatio="xMidYMid meet"/></g>
  <g class="frame f16" transform="translate(0 0.56)"><ellipse cx="40.5" cy="99.2" rx="29.2" ry="4.9" fill="none" stroke="#b05cff" stroke-width="0.97" opacity="0.27"/><path d="M14.6 93.7Q40.5 78.5 66.4 93.7" fill="none" stroke="#eea8ff" stroke-width="0.57" opacity="0.08"/><circle cx="34.2" cy="77.0" r="1.46" fill="#f2c4ff" opacity=".8"/><circle cx="23.7" cy="73.9" r="1.05" fill="#8a4dff" opacity=".72"/><image href="magic-sword-soul_1_1.png" x="0" y="0" width="81" height="109" preserveAspectRatio="xMidYMid meet"/></g>
  <g class="frame f17" transform="translate(0 1.10)"><ellipse cx="40.5" cy="99.2" rx="29.2" ry="4.9" fill="none" stroke="#b05cff" stroke-width="0.97" opacity="0.23"/><path d="M14.6 93.7Q40.5 78.5 66.4 93.7" fill="none" stroke="#eea8ff" stroke-width="0.57" opacity="0.10"/><circle cx="41.2" cy="75.0" r="1.46" fill="#f2c4ff" opacity=".8"/><circle cx="59.2" cy="76.9" r="1.05" fill="#8a4dff" opacity=".72"/><image href="magic-sword-soul_1_1.png" x="0" y="0" width="81" height="109" preserveAspectRatio="xMidYMid meet"/></g>
  <g class="frame f18" transform="translate(0 1.59)"><ellipse cx="40.5" cy="99.2" rx="29.2" ry="4.9" fill="none" stroke="#b05cff" stroke-width="0.97" opacity="0.19"/><path d="M14.6 93.7Q40.5 78.5 66.4 93.7" fill="none" stroke="#eea8ff" stroke-width="0.57" opacity="0.12"/><circle cx="48.2" cy="85.0" r="1.46" fill="#f2c4ff" opacity=".8"/><circle cx="54.2" cy="79.9" r="1.05" fill="#8a4dff" opacity=".72"/><image href="magic-sword-soul_1_1.png" x="0" y="0" width="81" height="109" preserveAspectRatio="xMidYMid meet"/></g>
  <g class="frame f19" transform="translate(0 2.01)"><ellipse cx="40.5" cy="99.2" rx="29.2" ry="4.9" fill="none" stroke="#b05cff" stroke-width="0.97" opacity="0.16"/><path d="M14.6 93.7Q40.5 78.5 66.4 93.7" fill="none" stroke="#eea8ff" stroke-width="0.57" opacity="0.15"/><circle cx="55.2" cy="83.0" r="1.46" fill="#f2c4ff" opacity=".8"/><circle cx="49.2" cy="82.9" r="1.05" fill="#8a4dff" opacity=".72"/><image href="magic-sword-soul_1_1.png" x="0" y="0" width="81" height="109" preserveAspectRatio="xMidYMid meet"/></g>
  <g class="frame f20" transform="translate(0 2.34)"><ellipse cx="40.5" cy="99.2" rx="29.2" ry="4.9" fill="none" stroke="#b05cff" stroke-width="0.97" opacity="0.13"/><path d="M14.6 93.7Q40.5 78.5 66.4 93.7" fill="none" stroke="#eea8ff" stroke-width="0.57" opacity="0.18"/><circle cx="62.2" cy="81.0" r="1.46" fill="#f2c4ff" opacity=".8"/><circle cx="44.2" cy="70.9" r="1.05" fill="#8a4dff" opacity=".72"/><image href="magic-sword-soul_1_1.png" x="0" y="0" width="81" height="109" preserveAspectRatio="xMidYMid meet"/></g>
  <g class="frame f21" transform="translate(0 2.57)"><ellipse cx="40.5" cy="99.2" rx="29.2" ry="4.9" fill="none" stroke="#b05cff" stroke-width="0.97" opacity="0.11"/><path d="M14.6 93.7Q40.5 78.5 66.4 93.7" fill="none" stroke="#eea8ff" stroke-width="0.57" opacity="0.22"/><circle cx="22.3" cy="79.0" r="1.46" fill="#f2c4ff" opacity=".8"/><circle cx="39.2" cy="73.9" r="1.05" fill="#8a4dff" opacity=".72"/><image href="magic-sword-soul_1_1_f1.png" x="0" y="0" width="81" height="109" preserveAspectRatio="xMidYMid meet"/></g>
  <g class="frame f22" transform="translate(0 2.69)"><ellipse cx="40.5" cy="99.2" rx="29.2" ry="4.9" fill="none" stroke="#b05cff" stroke-width="0.97" opacity="0.10"/><path d="M14.6 93.7Q40.5 78.5 66.4 93.7" fill="none" stroke="#eea8ff" stroke-width="0.57" opacity="0.26"/><circle cx="29.3" cy="77.0" r="1.46" fill="#f2c4ff" opacity=".8"/><circle cx="34.2" cy="76.9" r="1.05" fill="#8a4dff" opacity=".72"/><image href="magic-sword-soul_1_1_f1.png" x="0" y="0" width="81" height="109" preserveAspectRatio="xMidYMid meet"/></g>
  <g class="frame f23" transform="translate(0 2.69)"><ellipse cx="40.5" cy="99.2" rx="29.2" ry="4.9" fill="none" stroke="#b05cff" stroke-width="0.97" opacity="0.10"/><path d="M14.6 93.7Q40.5 78.5 66.4 93.7" fill="none" stroke="#eea8ff" stroke-width="0.57" opacity="0.30"/><circle cx="36.3" cy="75.0" r="1.46" fill="#f2c4ff" opacity=".8"/><circle cx="29.2" cy="79.9" r="1.05" fill="#8a4dff" opacity=".72"/><image href="magic-sword-soul_1_1_f1.png" x="0" y="0" width="81" height="109" preserveAspectRatio="xMidYMid meet"/></g>
  <g class="frame f24" transform="translate(0 2.57)"><ellipse cx="40.5" cy="99.2" rx="29.2" ry="4.9" fill="none" stroke="#b05cff" stroke-width="0.97" opacity="0.11"/><path d="M14.6 93.7Q40.5 78.5 66.4 93.7" fill="none" stroke="#eea8ff" stroke-width="0.57" opacity="0.34"/><circle cx="43.3" cy="85.0" r="1.46" fill="#f2c4ff" opacity=".8"/><circle cx="24.2" cy="82.9" r="1.05" fill="#8a4dff" opacity=".72"/><image href="magic-sword-soul_1_1.png" x="0" y="0" width="81" height="109" preserveAspectRatio="xMidYMid meet"/></g>
  <g class="frame f25" transform="translate(0 2.34)"><ellipse cx="40.5" cy="99.2" rx="29.2" ry="4.9" fill="none" stroke="#b05cff" stroke-width="0.97" opacity="0.13"/><path d="M14.6 93.7Q40.5 78.5 66.4 93.7" fill="none" stroke="#eea8ff" stroke-width="0.57" opacity="0.38"/><circle cx="50.3" cy="83.0" r="1.46" fill="#f2c4ff" opacity=".8"/><circle cx="59.7" cy="70.9" r="1.05" fill="#8a4dff" opacity=".72"/><image href="magic-sword-soul_1_1.png" x="0" y="0" width="81" height="109" preserveAspectRatio="xMidYMid meet"/></g>
  <g class="frame f26" transform="translate(0 2.01)"><ellipse cx="40.5" cy="99.2" rx="29.2" ry="4.9" fill="none" stroke="#b05cff" stroke-width="0.97" opacity="0.16"/><path d="M14.6 93.7Q40.5 78.5 66.4 93.7" fill="none" stroke="#eea8ff" stroke-width="0.57" opacity="0.41"/><circle cx="57.3" cy="81.0" r="1.46" fill="#f2c4ff" opacity=".8"/><circle cx="54.7" cy="73.9" r="1.05" fill="#8a4dff" opacity=".72"/><image href="magic-sword-soul_1_1.png" x="0" y="0" width="81" height="109" preserveAspectRatio="xMidYMid meet"/></g>
  <g class="frame f27" transform="translate(0 1.59)"><ellipse cx="40.5" cy="99.2" rx="29.2" ry="4.9" fill="none" stroke="#b05cff" stroke-width="0.97" opacity="0.19"/><path d="M14.6 93.7Q40.5 78.5 66.4 93.7" fill="none" stroke="#eea8ff" stroke-width="0.57" opacity="0.44"/><circle cx="17.3" cy="79.0" r="1.46" fill="#f2c4ff" opacity=".8"/><circle cx="49.7" cy="76.9" r="1.05" fill="#8a4dff" opacity=".72"/><image href="magic-sword-soul_1_1.png" x="0" y="0" width="81" height="109" preserveAspectRatio="xMidYMid meet"/></g>
  <g class="frame f28" transform="translate(0 1.10)"><ellipse cx="40.5" cy="99.2" rx="29.2" ry="4.9" fill="none" stroke="#b05cff" stroke-width="0.97" opacity="0.23"/><path d="M14.6 93.7Q40.5 78.5 66.4 93.7" fill="none" stroke="#eea8ff" stroke-width="0.57" opacity="0.46"/><circle cx="24.3" cy="77.0" r="1.46" fill="#f2c4ff" opacity=".8"/><circle cx="44.7" cy="79.9" r="1.05" fill="#8a4dff" opacity=".72"/><image href="magic-sword-soul_1_1.png" x="0" y="0" width="81" height="109" preserveAspectRatio="xMidYMid meet"/></g>
  <g class="frame f29" transform="translate(0 0.56)"><ellipse cx="40.5" cy="99.2" rx="29.2" ry="4.9" fill="none" stroke="#b05cff" stroke-width="0.97" opacity="0.27"/><path d="M14.6 93.7Q40.5 78.5 66.4 93.7" fill="none" stroke="#eea8ff" stroke-width="0.57" opacity="0.48"/><circle cx="31.3" cy="75.0" r="1.46" fill="#f2c4ff" opacity=".8"/><circle cx="39.7" cy="82.9" r="1.05" fill="#8a4dff" opacity=".72"/><image href="magic-sword-soul_1_1_f1.png" x="0" y="0" width="81" height="109" preserveAspectRatio="xMidYMid meet"/></g>
  <g class="frame f30" transform="translate(0 0.00)"><ellipse cx="40.5" cy="99.2" rx="29.2" ry="4.9" fill="none" stroke="#b05cff" stroke-width="0.97" opacity="0.32"/><path d="M14.6 93.7Q40.5 78.5 66.4 93.7" fill="none" stroke="#eea8ff" stroke-width="0.57" opacity="0.48"/><circle cx="38.3" cy="85.0" r="1.46" fill="#f2c4ff" opacity=".8"/><circle cx="34.7" cy="70.9" r="1.05" fill="#8a4dff" opacity=".72"/><image href="magic-sword-soul_1_1_f1.png" x="0" y="0" width="81" height="109" preserveAspectRatio="xMidYMid meet"/></g>
</svg>
